HIERARCHY
ROOT Root
{
  OFFSET -9.11166 11.8871 1.63708
  CHANNELS 6 Xposition Yposition Zposition Zrotation Xrotation Yrotation
  JOINT Spine
  {
    OFFSET 5.3114 0 0
    CHANNELS 3 Zrotation Xrotation Yrotation
    JOINT Spine1
    {
      OFFSET 2.79004 0 0
      CHANNELS 3 Zrotation Xrotation Yrotation
      JOINT Neck
      {
        OFFSET 1.43377 0 0
        CHANNELS 3 Zrotation Xrotation Yrotation
        JOINT Head
        {
          OFFSET 1.86043 0 0
          CHANNELS 3 Zrotation Xrotation Yrotation
          End Site
          {
            OFFSET 0 0 0
          }
        }
      }
      JOINT LeftArm
      {
        OFFSET 0.0387506 0 2.55754
        CHANNELS 3 Zrotation Xrotation Yrotation
        JOINT LeftForeArm
        {
          OFFSET 4.24845 0 0
          CHANNELS 3 Zrotation Xrotation Yrotation
          JOINT LeftHand
          {
            OFFSET 4.01008 0 0
            CHANNELS 3 Zrotation Xrotation Yrotation
            End Site
            {
              OFFSET 0 0 0
            }
          }
        }
      }
      JOINT RightArm
      {
        OFFSET 0.0387506 0 -2.55754
        CHANNELS 3 Zrotation Xrotation Yrotation
        JOINT RightForeArm
        {
          OFFSET -4.24845 0 0
          CHANNELS 3 Zrotation Xrotation Yrotation
          JOINT RightHand
          {
            OFFSET -4.01009 0 0
            CHANNELS 3 Zrotation Xrotation Yrotation
            End Site
            {
              OFFSET 0 0 0
            }
          }
        }
      }
    }
  }
  JOINT LeftUpLeg
  {
    OFFSET -1.23318 0 2.05692
    CHANNELS 3 Zrotation Xrotation Yrotation
    JOINT LeftLeg
    {
      OFFSET 5.46397 0 0
      CHANNELS 3 Zrotation Xrotation Yrotation
      JOINT LeftFoot
      {
        OFFSET 4.68898 0 0
        CHANNELS 3 Zrotation Xrotation Yrotation
        End Site
        {
          OFFSET 0 0 0
        }
      }
    }
  }
  JOINT RightUpLeg
  {
    OFFSET -1.24454 0 -2.05007
    CHANNELS 3 Zrotation Xrotation Yrotation
    JOINT RightLeg
    {
      OFFSET -5.46397 0 0
      CHANNELS 3 Zrotation Xrotation Yrotation
      JOINT RightFoot
      {
        OFFSET -4.68901 0 0
        CHANNELS 3 Zrotation Xrotation Yrotation
        End Site
        {
          OFFSET 0 0 0
        }
      }
    }
  }
}
MOTION
Frames:	19
Frame Time:	0.00833333
-9.11166 11.8871 1.63708 -0 90 90 9.69808e-018 1.34041e-020 0.158382 1.41245e-030 7.06225e-031 2.48481e-017 -7.30747e-017 7.61111e-019 -1.19349 3.40995e-017 1.65719e-019 0.556895 -2.12238e-008 -1.53545e-005 -90.1584 -2.50273e-005 -2.47192e-012 6.55612e-006 1.52588e-005 -6.98387e-015 174.455 180 -4.60993e-005 -89.8417 -5.49628e-005 -2.25992e-011 3.612e-005 1.52588e-005 6.98387e-015 174.455 -3.94879 -0.248857 -175.995 -8.56444 0.175948 -0.869976 4.60963 -0.077536 176.868 177.969 -0.126284 -176.037 -4.40394 0.0842343 -0.877215 2.37029 -0.0334797 176.598 
-9.02901 11.8931 1.55889 -93.9259 66.7774 -178.947 -2.0454 -0.895038 1.11475 1.37349 -0.205038 0.692713 -5.07594 0.00906142 -1.8995 7.9101 -0.050071 0.566324 7.21963 -3.54778 -112.897 7.75438 0.440522 4.43096 -0.294884 -3.36584 174.449 -178.615 -0.405664 -112.57 7.18587 0.332966 4.12615 0.497011 5.65781 174.437 -7.3502 -1.26021 -176.683 -17.2363 -0.165055 -1.02552 10.351 -0.570838 177.212 171.046 -1.88071 -177.787 -12.9169 -0.176584 -1.01755 1.20092 3.47689 176.736 
-8.94298 11.8995 1.47461 -96.861 42.2413 -178.851 -4.17579 -1.8528 2.12475 2.83263 -0.425139 1.42781 -10.4464 0.0266354 -2.63904 16.2822 -0.0876644 0.563566 10.5386 -13.6063 -135.929 15.8772 0.897272 9.11547 -0.608694 -6.92382 174.421 -177.684 -1.57099 -136.574 14.7257 0.678357 8.48591 1.03302 11.6455 174.358 -10.9322 -2.34517 -177.415 -26.323 -0.525 -1.188 16.4556 -1.08608 177.575 163.601 -3.74538 -179.638 -21.9135 -0.452258 -1.16582 -0.0582058 7.18059 176.87 
-8.86371 11.9052 1.40252 -99.3374 20.3377 -178.672 -6.04651 -2.68187 3.03041 4.13533 -0.614755 2.07825 -15.2271 0.0271538 -3.31152 23.7303 -0.150213 0.585182 7.00859 -25.2427 -156.828 23.0608 1.29001 13.2959 -0.892591 -10.0972 174.378 -177.605 -2.9711 -158.007 21.4151 0.978211 12.38 1.52958 16.9718 174.232 -14.2259 -3.28616 -178.058 -34.5855 -0.84695 -1.33676 21.8516 -1.55819 177.899 156.876 -5.39177 178.703 -29.9467 -0.698146 -1.2983 -1.18544 10.5004 176.98 
-8.80136 11.9093 1.36091 -100.942 5.01057 -178.458 -7.33311 -3.19232 3.67233 5.03589 -0.728523 2.51695 -18.5348 -0.0148864 -3.81635 28.8688 -0.275145 0.667734 -0.328211 -32.9212 -173.17 28.038 1.55272 16.2132 -1.09387 -12.3094 174.337 -178.076 -4.05325 -173.023 26.0775 1.18374 15.1085 1.88913 20.6466 174.111 -16.7452 -3.86528 -178.477 -40.784 -1.074 -1.45111 25.4642 -1.92201 178.13 152.184 -6.4957 177.536 -35.5687 -0.869631 -1.39119 -1.95097 12.8586 177.054 
-8.76305 11.9111 1.36178 -101.512 -1.12247 -178.313 -7.83594 -3.25817 3.94352 5.36774 -0.7361 2.65937 -19.7725 -0.121985 -4.09283 30.7558 -0.499955 0.839436 -4.46822 -35.4668 179.748 29.9729 1.65118 17.3521 -1.17138 -13.1514 174.319 -178.44 -4.70813 -179.032 27.941 1.26992 16.2015 2.02769 22.0148 174.058 -18.1614 -3.92589 -178.582 -44.0964 -1.16756 -1.51703 26.5264 -2.10613 178.216 150.424 -6.84517 177.076 -37.8316 -0.937209 -1.42909 -2.19118 13.8789 177.084 
-8.74189 11.9112 1.39301 -101.409 -0.689685 -178.262 -7.78452 -3.00704 3.94948 5.29266 -0.667889 2.59014 -19.5321 -0.27528 -4.20592 30.3231 -0.795475 1.07467 -3.97296 -35.2557 -179.483 29.7491 1.63845 17.2205 -1.15885 -13.0159 174.322 -178.47 -5.15242 -178.59 27.8155 1.27492 16.1263 1.99947 21.7355 174.068 -18.7861 -3.61668 -178.463 -45.3466 -1.16582 -1.54833 25.7678 -2.16319 178.2 150.782 -6.65797 177.124 -37.694 -0.930566 -1.42765 -2.05333 13.9429 177.085 
-8.72701 11.9108 1.43667 -101.038 2.38277 -178.258 -7.50188 -2.63006 3.8488 5.05685 -0.569738 2.4359 -18.7139 -0.438217 -4.24354 28.9943 -1.09914 1.32924 -1.59553 -33.9228 -175.565 28.6853 1.58596 16.594 -1.11402 -12.5293 174.332 -178.303 -5.55506 -175.543 26.902 1.24894 15.5877 1.90404 20.7905 174.105 -19.0899 -3.17799 -178.252 -45.7633 -1.12703 -1.56612 24.3576 -2.21412 178.162 152.009 -6.25815 177.362 -36.5678 -0.893868 -1.4098 -1.77322 13.6099 177.076 
-8.70751 11.9108 1.47482 -100.782 4.16929 -178.248 -7.31265 -2.31844 3.79978 4.90589 -0.487525 2.32328 -18.2184 -0.574198 -4.29358 28.1914 -1.34844 1.55891 -0.224046 -33.0487 -173.273 28.0997 1.56497 16.2478 -1.09462 -12.3176 174.337 -178.201 -6.07905 -173.745 26.3999 1.24173 15.2907 1.84078 20.1613 174.127 -19.539 -2.85011 -178.083 -46.5752 -1.1094 -1.59149 23.4656 -2.37985 178.183 152.862 -5.96979 177.474 -35.8648 -0.871282 -1.39842 -1.58713 13.439 177.076 
-8.68152 11.9116 1.50459 -100.701 4.01533 -178.241 -7.26766 -2.10735 3.84108 4.87775 -0.429846 2.26906 -18.2061 -0.671961 -4.36529 28.1748 -1.52006 1.75739 -0.108775 -33.0035 -173.275 28.2215 1.58942 16.3161 -1.11244 -12.5108 174.332 -178.241 -6.78273 -173.844 26.5222 1.26417 15.3598 1.82242 19.9877 174.134 -20.2082 -2.68484 -177.964 -48.0093 -1.12325 -1.62866 23.3216 -2.70915 178.285 153.156 -5.84123 177.398 -35.7889 -0.869661 -1.39656 -1.54689 13.5061 177.091 
-8.6545 11.9126 1.5349 -100.602 3.88378 -178.255 -7.20554 -1.90007 3.88946 4.85067 -0.373441 2.21138 -18.2229 -0.751553 -4.4165 28.2247 -1.64959 1.94641 0.0443215 -32.925 -173.265 28.388 1.6228 16.4095 -1.13799 -12.7872 174.326 -178.281 -7.56842 -173.911 26.6646 1.2904 15.4401 1.80086 19.7869 174.141 -20.8652 -2.55813 -177.833 -49.4438 -1.13928 -1.66685 23.3306 -3.13206 178.426 153.506 -5.71222 177.295 -35.6444 -0.867091 -1.39302 -1.53027 13.5374 177.109 
-8.62658 11.9136 1.56556 -100.496 3.77534 -178.266 -7.13571 -1.6902 3.92006 4.8298 -0.316457 2.15884 -18.2484 -0.823282 -4.45799 28.292 -1.76282 2.12375 0.219142 -32.8315 -173.251 28.5823 1.66207 16.5184 -1.16662 -13.0961 174.319 -178.336 -8.41189 -173.941 26.802 1.31576 15.5177 1.78141 19.6065 174.147 -21.5115 -2.44635 -177.717 -50.8347 -1.15624 -1.70464 23.4255 -3.59137 178.585 153.87 -5.59471 177.186 -35.4949 -0.86459 -1.38937 -1.51217 13.5674 177.129 
-8.59788 11.9142 1.59636 -100.39 3.69067 -178.251 -7.06726 -1.47131 3.90801 4.8202 -0.25704 2.12008 -18.2624 -0.897446 -4.50054 28.3279 -1.88556 2.28717 0.399622 -32.7411 -173.238 28.7878 1.7042 16.6334 -1.19361 -13.3866 174.312 -178.421 -9.28882 -173.928 26.9094 1.3356 15.5783 1.76934 19.4944 174.151 -22.1484 -2.32588 -177.641 -52.138 -1.17293 -1.74065 23.538 -4.02989 178.742 154.207 -5.50059 177.088 -35.4038 -0.863175 -1.38717 -1.46754 13.6305 177.146 
-8.56827 11.9148 1.62763 -100.281 3.6227 -178.2 -6.99597 -1.24117 3.83539 4.82772 -0.194569 2.10303 -18.2664 -0.977072 -4.54808 28.3255 -2.02519 2.4388 0.586853 -32.6605 -173.223 29.0149 1.75153 16.7602 -1.21934 -13.6627 174.306 -178.542 -10.2048 -173.867 26.9683 1.34651 15.6116 1.76777 19.4798 174.151 -22.7676 -2.19066 -177.614 -53.3474 -1.18923 -1.77487 23.6615 -4.44418 178.897 154.519 -5.43708 177.005 -35.3873 -0.863341 -1.38683 -1.36512 13.7443 177.153 
-8.53773 11.9152 1.65936 -100.164 3.57351 -178.129 -6.91832 -1.00331 3.71925 4.84808 -0.130077 2.1012 -18.269 -1.05657 -4.59452 28.3086 -2.16779 2.57892 0.787587 -32.5795 -173.203 29.2676 1.80457 16.9012 -1.24578 -13.9458 174.299 -178.689 -11.1684 -173.76 26.9961 1.35169 15.6273 1.77327 19.5315 174.149 -23.3709 -2.0532 -177.62 -54.4845 -1.20571 -1.80793 23.8288 -4.8608 179.057 154.822 -5.39648 176.927 -35.4118 -0.864472 -1.38753 -1.22646 13.8876 177.156 
-8.50659 11.9151 1.69082 -100.055 3.55738 -178.044 -6.84445 -0.759992 3.58721 4.87121 -0.0641956 2.10162 -18.2602 -1.13333 -4.63557 28.2749 -2.30718 2.70258 0.994274 -32.4905 -173.189 29.5188 1.85765 17.0415 -1.27059 -14.2107 174.292 -178.842 -12.1597 -173.617 27.0213 1.35647 15.6415 1.78134 19.6075 174.146 -23.9748 -1.91774 -177.656 -55.5473 -1.22221 -1.83933 24.0294 -5.26747 179.221 155.102 -5.36832 176.857 -35.466 -0.865916 -1.38895 -1.10576 14.0369 177.164 
-8.47515 11.914 1.72129 -99.9674 3.58862 -177.952 -6.78498 -0.513493 3.46687 4.88709 0.00244558 2.09132 -18.2303 -1.20473 -4.66698 28.2221 -2.4372 2.80481 1.19945 -32.3861 -173.189 29.7418 1.90511 17.166 -1.29141 -14.4325 174.286 -178.987 -13.1589 -173.45 27.0724 1.36618 15.6702 1.78747 19.6655 174.144 -24.5963 -1.78854 -177.716 -56.5334 -1.23857 -1.86859 24.2529 -5.65193 179.384 155.342 -5.34216 176.798 -35.5386 -0.867024 -1.39081 -1.05732 14.1687 177.189 
-8.44373 11.9114 1.75039 -99.9122 3.68722 -177.847 -6.74802 -0.258686 3.35905 4.89218 0.0712956 2.06839 -18.1605 -1.27215 -4.67877 28.119 -2.56242 2.86674 1.4063 -32.2656 -173.211 29.9403 1.94797 17.2765 -1.30796 -14.6079 174.282 -179.111 -14.1858 -173.251 27.1636 1.3835 15.7215 1.78984 19.6894 174.142 -25.2402 -1.65494 -177.808 -57.4512 -1.2557 -1.89606 24.5291 -6.0294 179.556 155.519 -5.31965 176.759 -35.6423 -0.867517 -1.39337 -1.11894 14.272 177.242 
-8.41208 11.9078 1.77855 -99.88 3.84012 -177.726 -6.7261 0.0037339 3.25121 4.89215 0.142153 2.03926 -18.0613 -1.33629 -4.67615 27.9767 -2.68409 2.89686 1.6173 -32.1325 -173.247 30.1248 1.98843 17.3792 -1.32137 -14.7492 174.278 -179.223 -15.2422 -173.016 27.2775 1.40516 15.7856 1.79109 19.7033 174.142 -25.8972 -1.51859 -177.931 -58.2989 -1.27337 -1.92185 24.8529 -6.40024 179.737 155.648 -5.30489 176.735 -35.7779 -0.867779 -1.39668 -1.25401 14.3609 177.312 
